{"title":"Dallas Buyers Club (2013) DD5.1 NL Subs BR2DVD-NLU002","uid":9527214,"size":4688184031,"categoryP":"video","categoryS":"movies_dvdr","magnet":"?xt=urn:btih:6566611179cc1bce52f9d25038ff522739d9bfd7&amp;dn=Dallas+Buyers+Club+%282013%29+DD5.1+NL+Subs+BR2DVD-NLU002&amp;tr=udp%3A%2F%2Ftracker.openbittorrent.com%3A80&amp;tr=udp%3A%2F%2Fopen.demonii.com%3A1337&amp;tr=udp%3A%2F%2Ftracker.coppersurfer.tk%3A6969&amp;tr=udp%3A%2F%2Fexodus.desync.com%3A6969","seeders":1,"leechers":1,"uploader":"NLUPPER002","files":-1,"time":1390770626,"description":"Dallas Buyers Club (2013) DD5.1 NL Subs BR2DVD-NLU002\n.\nR  -  117 min  -  Biography | Drama | History  -  22 November 2013 (USA) \nRated R for pervasive language, some strong sexual content, nudity and drug use\n. &lt;a href=&quot;\nhttp://www.imdb.com/title/tt0790636/&quot; rel=&quot;nofollow&quot; target=&quot;_NEW&quot;&gt;\nhttp://www.imdb.com/title/tt0790636/&lt;/a&gt;\n. &lt;a href=&quot;\nhttp://www.moviemeter.nl/film/94722&quot; rel=&quot;nofollow&quot; target=&quot;_NEW&quot;&gt;\nhttp://www.moviemeter.nl/film/94722&lt;/a&gt;\n.\nPLOT\n.\nIn 1985 Dallas, electrician and hustler Ron Woodroof works around the system to help,\nAIDS patients get the medication they need after he is himself diagnosed with the disease. \n.\nSource: Dallas.Buyers.Club.2013.720p.BluRay.x264-SPARKS\nFormat: DVD5\nVideo: PAL \nAudio: English DD5.1\nSubtitles: Dutch White and Yellow\nVertaling: Sneeuwitje en de Zeven Dwergen\nControle en bewerking: Goffini\nMenu: Yes: Custom by NLU002\nProgram Used: TMPGEnc Authoring Works 5 - retail\n.\nNja, wat screens.\n. &lt;a href=&quot;\nhttp://imagizer.imageshack.us/v2/800x600q90/849/usnh.jpg&quot; rel=&quot;nofollow&quot; target=&quot;_NEW&quot;&gt;\nhttp://imagizer.imageshack.us/v2/800x600q90/849/usnh.jpg&lt;/a&gt; &lt;a href=&quot;\nhttp://imagizer.imageshack.us/v2/800x600q90/607/qs7h.jpg&quot; rel=&quot;nofollow&quot; target=&quot;_NEW&quot;&gt;\nhttp://imagizer.imageshack.us/v2/800x600q90/607/qs7h.jpg&lt;/a&gt; &lt;a href=&quot;\nhttp://imagizer.imageshack.us/v2/800x600q90/819/q4t3.jpg&quot; rel=&quot;nofollow&quot; target=&quot;_NEW&quot;&gt;\nhttp://imagizer.imageshack.us/v2/800x600q90/819/q4t3.jpg&lt;/a&gt; &lt;a href=&quot;\nhttp://imagizer.imageshack.us/v2/800x600q90/809/lcm7.jpg&quot; rel=&quot;nofollow&quot; target=&quot;_NEW&quot;&gt;\nhttp://imagizer.imageshack.us/v2/800x600q90/809/lcm7.jpg&lt;/a&gt; &lt;a href=&quot;\nhttp://imagizer.imageshack.us/v2/800x600q90/854/oet7.jpg&quot; rel=&quot;nofollow&quot; target=&quot;_NEW&quot;&gt;\nhttp://imagizer.imageshack.us/v2/800x600q90/854/oet7.jpg&lt;/a&gt; &lt;a href=&quot;\nhttp://imagizer.imageshack.us/v2/800x600q90/834/p3un.jpg&quot; rel=&quot;nofollow&quot; target=&quot;_NEW&quot;&gt;\nhttp://imagizer.imageshack.us/v2/800x600q90/834/p3un.jpg&lt;/a&gt;\n.\nTechnische Info 1ste vob file\n.\nOverall bit rate                         : 5 422 Kbps\nWriting library                          : encoded by TMPGEnc Authoring Works 5 Version. 5.1.3.57\n\nVideo\nID                                       : 224 (0xE0)\nFormat                                   : MPEG Video\nFormat version                           : Version 2\nFormat profile                           : Main@Main\nFormat settings, BVOP                    : Yes\nFormat settings, Matrix                  : Custom\nFormat settings, GOP                     : Variable\nDuration                                 : 26mn 24s\nBit rate mode                            : Variable\nBit rate                                 : 4 866 Kbps\nMaximum bit rate                         : 8 000 Kbps\nWidth                                    : 720 pixels\nHeight                                   : 576 pixels\nDisplay aspect ratio                     : 16:9\nFrame rate                               : 25.000 fps\nStandard                                 : PAL\nColor space                              : YUV\nChroma subsampling                       : 4:2:0\nBit depth                                : 8 bits\nScan type                                : Progressive\nCompression mode                         : Lossy\nBits/(Pixel*Frame)                       : 0.469\nTime code of first frame                 : 00:00:00:00\nTime code source                         : Group of pictures header\nStream size                              : 919 MiB (90%)\nSource encoded stream size               : encoded by TMPGEnc Authoring Works 5 Version. 5.1.3.57\nWriting library                          : TMPGEnc Authoring Works 5 Version. 5.1.3.57\nColor primaries                          : BT.601 PAL\nTransfer characteristics                 : BT.470 System B, BT.470 System G\nMatrix coefficients                      : BT.601\n\nAudio\nID                                       : 189 (0xBD)-128 (0x80)\nFormat                                   : AC-3\nFormat/Info                              : Audio Coding 3\nMode extension                           : CM (complete main)\nFormat settings, Endianness              : Big\nMuxing mode                              : DVD-Video\nDuration                                 : 26mn 23s\nBit rate mode                            : Constant\nBit rate                                 : 448 Kbps\nChannel(s)                               : 6 channels\nChannel positions                        : Front: L C R, Side: L R, LFE\nSampling rate                            : 48.0 KHz\nBit depth                                : 16 bits\nCompression mode                         : Lossy\nStream size                              : 84.6 MiB (8%)\n\nNLU002 says enjoy another quality upload.\n\n\n","torrent":{"xt":"urn:btih:6566611179cc1bce52f9d25038ff522739d9bfd7","amp;dn":"Dallas+Buyers+Club+%282013%29+DD5.1+NL+Subs+BR2DVD-NLU002","amp;tr":["udp%3A%2F%2Ftracker.openbittorrent.com%3A80","udp%3A%2F%2Fopen.demonii.com%3A1337","udp%3A%2F%2Ftracker.coppersurfer.tk%3A6969","udp%3A%2F%2Fexodus.desync.com%3A6969"],"infoHash":"6566611179cc1bce52f9d25038ff522739d9bfd7","infoHashBuffer":{"type":"Buffer","data":[101,102,97,17,121,204,27,206,82,249,210,80,56,255,82,39,57,217,191,215]},"announce":[],"urlList":[]}}